# xmcd
#
# Track frame offsets: 
#        150
#        34335
#        47060
#        71385
#        116088
#        142968
#        168278
#        200393
#        220818
#
# Disc length: 3304 seconds
#
# Revision: 3
# Processed by: cddbd v1.5.2PL0 Copyright (c) Steve Scherf et al.
# Submitted via: ExactAudioCopy v0.99pb4
#
DISCID=7f0ce609
DTITLE=J.S.Bach / Brandenburg Concertos 4-6
DYEAR=1991
DGENRE=Classical
TTITLE0=Brandenburg Concerto No 4 in G Major BWV 1049 - 1 Allegro
TTITLE1=Brandenburg Concerto No 4 in G Major - 2 Andante
TTITLE2=Brandenburg Concerto No 4 in G Major - 3 Presto
TTITLE3=Brandenburg Concerto No 5 in D Major - BWV 1050 - 1 Allegro
TTITLE4=Brandenburg Concerto No 5 in D Major - 2 Affettuoso
TTITLE5=Brandenburg Concerto No 5 in D Major - 3 Allegro
TTITLE6=Brandenburg Concerto No 6 in B flat Major - BWV 1051 - 1 Alleg
TTITLE6=ro
TTITLE7=Brandenburg Concerto No 6 in B flat Major - 2 Adagio ma non ta
TTITLE7=nto
TTITLE8=Brandenburg Concerto No 6 in B flat Major - 3 Allegro
EXTD=Camarata Romana
EXTT0=
EXTT1=
EXTT2=
EXTT3=
EXTT4=
EXTT5=
EXTT6=
EXTT7=
EXTT8=
PLAYORDER=
.
